<?xml version="1.0" standalone="no"?>
<!DOCTYPE svg PUBLIC "-//W3C//DTD SVG 20010904//EN"
 "http://www.w3.org/TR/2001/REC-SVG-20010904/DTD/svg10.dtd">
<svg version="1.0" xmlns="http://www.w3.org/2000/svg"
 width="260.000000pt" height="260.000000pt" viewBox="0 0 260.000000 260.000000"
 preserveAspectRatio="xMidYMid meet">
<metadata>
Created by potrace 1.11, written by Peter Selinger 2001-2013
</metadata>
<g transform="translate(0.000000,260.000000) scale(0.100000,-0.100000)"
fill="#000000" stroke="none">
<path d="M1175 2444 c2 -21 -1 -31 -11 -31 -10 0 -11 4 -3 13 7 8 7 14 -1 19
-6 4 -10 3 -9 -2 1 -4 0 -10 -1 -13 -9 -25 -7 -41 6 -36 22 8 17 -2 -7 -15
-15 -8 -19 -8 -15 0 4 6 0 11 -8 11 -10 0 -13 -6 -9 -17 4 -11 3 -14 -5 -9 -7
4 -12 1 -12 -9 0 -10 5 -13 12 -9 7 4 8 3 4 -5 -6 -9 -11 -9 -22 0 -12 10 -13
9 -8 -6 6 -14 4 -16 -7 -10 -8 5 -5 -2 6 -15 l20 -23 -24 13 c-15 7 -21 8 -17
1 4 -6 1 -11 -6 -11 -7 -1 -2 -7 12 -15 l25 -14 -25 -2 c-14 -1 -18 -3 -9 -6
11 -3 14 -12 11 -33 -2 -17 -9 -27 -15 -23 -6 3 -7 1 -3 -5 4 -6 12 -10 19 -8
7 1 9 1 4 -1 -4 -3 -5 -9 -2 -13 3 -5 0 -12 -6 -16 -8 -5 -9 -3 -4 6 5 9 4 11
-4 6 -6 -4 -8 -13 -4 -19 13 -21 14 -57 2 -57 -7 0 -9 -3 -6 -6 4 -4 13 -1 22
6 13 11 14 10 9 -4 -3 -9 -10 -16 -14 -16 -11 0 1 -43 14 -52 6 -4 0 -8 -14
-9 -23 0 -23 -1 -5 -9 11 -5 15 -9 8 -9 -7 -1 -10 -8 -6 -18 5 -12 3 -14 -7
-8 -9 5 -11 4 -6 -3 4 -7 14 -12 22 -12 8 0 13 -4 9 -10 -3 -5 -11 -8 -18 -6
-7 1 -9 1 -4 -1 12 -7 8 -43 -5 -43 -10 0 -10 -2 0 -9 18 -11 18 -12 4 -38 -9
-16 -9 -24 0 -29 7 -5 8 -3 3 6 -5 8 -4 11 2 7 6 -4 9 4 7 18 -1 14 1 23 5 20
12 -7 7 -41 -8 -59 -11 -14 -11 -16 3 -16 10 0 15 -4 11 -10 -3 -5 -11 -8 -18
-6 -7 1 -9 1 -4 -1 12 -7 8 -43 -5 -43 -10 0 -10 -2 0 -9 15 -9 15 -17 1 -43
-6 -10 -5 -19 1 -23 14 -9 13 -45 -2 -45 -6 0 -8 -3 -5 -6 4 -4 13 -1 22 6 13
11 14 10 9 -4 -3 -9 -10 -16 -14 -16 -11 0 1 -43 14 -52 6 -4 0 -8 -14 -9 -23
0 -23 -1 -5 -9 11 -5 15 -9 8 -9 -14 -1 -6 -32 11 -43 7 -5 7 -8 -2 -8 -7 0
-11 -4 -7 -9 3 -5 0 -13 -6 -17 -8 -5 -9 -3 -4 6 5 9 4 11 -4 6 -6 -4 -9 -12
-5 -17 3 -5 9 -7 14 -4 5 3 11 1 14 -4 4 -5 1 -13 -5 -17 -8 -5 -9 -3 -4 6 5
9 4 11 -3 6 -17 -10 -15 -26 4 -26 8 0 13 -4 9 -10 -3 -5 -11 -8 -18 -6 -7 1
-9 1 -4 -1 12 -7 8 -43 -5 -43 -10 0 -10 -2 0 -9 18 -11 18 -12 4 -38 -9 -16
-9 -24 0 -29 7 -5 8 -3 3 6 -5 8 -4 11 2 7 6 -4 9 4 7 18 -1 14 1 23 5 20 10
-5 8 -36 -3 -54 -5 -8 -3 -17 5 -22 11 -7 11 -9 1 -9 -7 0 -11 -4 -7 -9 3 -5
0 -13 -6 -17 -8 -5 -9 -3 -4 6 5 9 4 11 -4 6 -6 -4 -8 -13 -4 -19 13 -21 14
-57 2 -57 -7 0 -9 -3 -6 -6 4 -4 13 -1 22 6 13 11 14 10 9 -4 -3 -9 -10 -16
-14 -16 -11 0 1 -43 14 -52 6 -4 0 -8 -14 -9 -23 0 -23 -1 -5 -9 11 -5 15 -9
8 -9 -7 -1 -10 -8 -6 -18 5 -12 3 -14 -7 -8 -9 5 -11 4 -6 -3 4 -7 14 -12 22
-12 8 0 13 -4 9 -10 -3 -5 -11 -8 -18 -6 -7 1 -9 1 -4 -1 12 -7 8 -43 -5 -43
-10 0 -10 -2 0 -9 18 -11 18 -12 4 -38 -9 -16 -9 -24 0 -29 7 -5 8 -3 3 6 -5
8 -4 11 2 7 6 -4 9 4 7 18 -1 14 1 23 5 20 12 -7 7 -41 -8 -59 -11 -14 -11
-16 3 -16 10 0 15 -4 11 -10 -3 -5 -11 -8 -18 -6 -7 1 -9 1 -4 -1 12 -7 8 -43
-5 -43 -10 0 -10 -2 0 -9 15 -9 15 -17 1 -43 -6 -10 -5 -19 1 -23 14 -9 13
-45 -2 -45 -6 0 -8 -3 -5 -6 4 -4 13 -1 22 6 13 11 14 10 9 -4 -3 -9 -10 -16
-14 -16 -11 0 1 -43 14 -52 6 -4 0 -8 -14 -9 -23 0 -23 -1 -5 -9 11 -5 15 -9
8 -9 -14 -1 -6 -32 11 -43 7 -5 7 -8 -2 -8 -7 0 -11 -4 -7 -9 3 -5 0 -13 -6
-17 -8 -5 -9 -3 -4 6 5 9 4 11 -4 6 -6 -4 -9 -12 -5 -17 3 -5 9 -7 14 -4 5 3
11 1 14 -4 4 -5 1 -13 -5 -17 -8 -5 -9 -3 -4 6 5 9 4 11 -3 6 -17 -10 -15 -26
4 -26 8 0 13 -4 9 -10 -3 -5 -11 -8 -18 -6 -7 1 -9 1 -4 -1 11 -7 8 -43 -4
-43 -5 0 -7 -5 -4 -11 5 -6 12 -4 20 7 11 16 12 15 10 -10 -2 -16 -10 -33 -17
-37 -10 -7 -9 -9 5 -9 10 0 15 -5 12 -10 -4 -6 -12 -7 -18 -3 -8 5 -8 2 0 -9
7 -8 9 -19 5 -23 -4 -5 -1 -5 6 -1 7 4 9 12 6 18 -4 7 -2 8 4 4 15 -9 15 -12
-4 -30 -8 -9 -11 -16 -5 -16 5 0 13 5 16 10 3 6 12 10 18 10 8 0 9 -2 1 -8 -6
-4 -11 -15 -11 -24 0 -10 3 -16 5 -13 3 3 16 -5 29 -17 13 -12 23 -19 23 -15
0 3 -12 18 -27 33 -25 23 -25 25 -5 14 13 -6 28 -22 34 -36 8 -18 17 -23 32
-19 12 3 15 2 8 -1 -6 -3 -9 -10 -6 -16 4 -5 -3 -5 -16 2 -12 6 -24 9 -27 7
-2 -3 5 -8 16 -12 12 -3 21 -10 21 -14 0 -5 45 -9 100 -10 76 -2 100 1 100 11
0 9 3 9 10 -2 8 -12 10 -11 10 8 0 24 10 28 27 11 8 -8 13 -7 18 2 5 7 4 10
-2 6 -6 -4 -17 1 -24 10 -8 9 -9 14 -2 10 14 -8 46 21 37 34 -3 5 2 12 11 15
13 5 13 9 3 22 -11 13 -9 13 13 -1 21 -14 26 -15 26 -2 0 8 -4 12 -8 10 -14
-9 -3 27 12 36 12 8 12 10 -1 19 -13 8 -13 10 2 10 12 0 15 6 11 22 -4 19 -3
20 7 8 10 -13 11 -13 7 0 -2 8 -9 15 -15 15 -5 0 -14 3 -18 8 -4 4 0 7 9 7 11
0 14 5 10 16 -3 9 0 20 8 25 9 5 9 9 2 9 -12 0 -12 17 0 38 8 12 7 13 -13 16
-12 1 -14 15 -4 24 4 4 4 1 -1 -7 -5 -9 -4 -12 3 -7 17 10 15 26 -4 26 -8 0
-13 4 -9 10 3 5 11 8 18 6 7 -1 9 -1 4 1 -4 3 -5 9 -1 14 3 5 -2 9 -10 9 -13
0 -14 3 -4 19 7 11 16 17 22 14 5 -3 6 -1 2 6 -4 6 -11 9 -16 6 -5 -3 -11 -1
-15 5 -3 5 1 10 9 10 10 0 13 6 9 16 -3 9 0 20 8 25 9 5 9 9 2 9 -12 0 -12 17
0 38 8 12 7 13 -12 16 -18 2 -24 16 -8 16 10 0 17 5 17 10 0 6 -7 10 -16 10
-8 0 -13 4 -9 10 3 5 11 8 18 6 7 -1 9 -1 4 1 -4 3 -5 9 -1 14 3 5 -2 9 -11 9
-9 0 -14 4 -10 10 3 5 11 8 18 6 7 -1 9 -1 5 1 -5 3 -8 9 -8 14 0 6 5 7 12 3
7 -4 8 -3 4 4 -4 6 -14 9 -24 6 -15 -5 -15 -4 -1 8 9 7 14 19 11 27 -2 7 2 17
9 22 9 5 10 9 2 9 -12 0 -12 17 0 36 3 6 3 14 0 18 -13 13 -14 56 -2 56 7 0 9
3 6 6 -4 4 -13 1 -22 -6 -13 -11 -14 -10 -9 4 3 9 10 16 14 16 4 0 5 12 2 26
-3 16 1 30 9 35 11 7 11 9 1 9 -7 0 -10 5 -6 12 4 6 3 8 -4 4 -6 -3 -14 -1
-18 5 -4 8 -3 9 4 5 8 -5 12 2 12 18 0 14 5 26 12 26 6 0 8 3 5 6 -4 4 -13 1
-22 -6 -13 -11 -14 -10 -9 4 3 9 10 16 14 16 4 0 5 12 2 26 -3 16 1 30 9 35
11 7 11 9 1 9 -7 0 -10 5 -6 12 4 6 3 8 -4 4 -6 -3 -14 -1 -18 5 -4 8 -3 9 4
5 8 -5 12 2 12 18 0 14 5 26 12 26 6 0 8 3 5 6 -4 4 -13 1 -22 -6 -13 -11 -14
-10 -9 4 3 9 10 16 14 16 4 0 5 12 2 26 -3 16 1 30 9 35 11 7 11 9 1 9 -7 0
-10 5 -6 12 4 6 3 8 -4 4 -6 -3 -14 -1 -18 5 -4 8 -3 9 4 5 8 -5 12 2 12 18 0
14 5 26 12 26 6 0 8 3 5 6 -4 4 -13 1 -22 -6 -13 -11 -14 -10 -9 4 3 9 9 16
13 16 4 0 6 14 3 30 -3 19 0 30 8 30 7 0 2 9 -11 21 -13 11 -18 18 -11 14 7
-4 12 1 12 12 0 15 2 16 11 3 9 -13 10 -13 6 0 -2 8 -13 14 -23 12 -17 -2 -17
-1 -3 10 9 7 14 19 11 27 -2 7 2 17 9 22 9 5 10 9 2 9 -12 0 -12 17 0 38 8 12
7 13 -13 16 -11 1 -12 18 -3 26 4 3 3 -1 -2 -9 -5 -9 -4 -12 3 -7 17 10 15 26
-4 26 -8 0 -13 4 -9 10 3 5 11 8 18 6 7 -1 9 -1 4 1 -4 3 -5 9 -1 14 3 5 -2 9
-10 9 -13 0 -14 3 -4 19 7 11 16 17 22 14 5 -3 6 -1 2 6 -4 6 -11 9 -16 6 -5
-3 -11 -1 -15 5 -3 5 1 10 9 10 10 0 13 6 9 16 -3 9 0 20 8 25 9 5 9 9 2 9
-12 0 -12 17 0 38 8 12 7 13 -12 16 -18 2 -24 16 -8 16 10 0 17 5 17 10 0 6
-7 10 -16 10 -8 0 -13 4 -9 10 3 5 11 8 18 6 7 -1 9 -1 4 1 -4 3 -5 9 -1 14 3
5 -2 9 -11 9 -9 0 -14 4 -10 10 3 5 11 8 18 6 7 -1 9 -1 5 1 -5 3 -8 9 -8 14
0 6 5 7 12 3 7 -4 8 -3 4 4 -4 6 -14 9 -24 6 -15 -5 -15 -4 -1 8 9 7 14 19 11
27 -2 7 2 17 9 22 10 6 10 9 2 9 -7 0 -12 10 -11 23 2 40 -2 48 -14 41 -9 -6
-9 -3 0 9 15 18 7 41 -10 31 -7 -4 -8 -2 -4 5 4 6 12 9 17 6 5 -4 9 -1 9 4 0
6 -8 11 -17 11 -15 0 -16 2 -3 10 13 9 13 10 0 10 -17 0 -71 39 -55 40 6 0 16
-5 23 -12 9 -9 15 -9 25 1 10 10 8 12 -8 9 -11 -2 -19 2 -18 9 2 7 -6 10 -18
8 -11 -2 -35 7 -55 20 -27 18 -30 23 -15 22 12 -1 21 -5 21 -9 0 -4 6 -7 13
-5 6 1 11 -4 10 -10 -2 -7 2 -13 7 -13 17 0 11 15 -14 37 -21 19 -37 21 -130
21 -64 1 -106 -3 -106 -9 0 -6 4 -8 8 -5 11 7 8 -31 -3 -41 -4 -5 -6 -3 -2 2
3 6 -1 21 -8 35 l-14 25 4 -31z m-90 -303 c3 -5 2 -12 -3 -15 -5 -3 -9 1 -9 9
0 17 3 19 12 6z m446 -144 c-6 -8 -7 -18 -3 -22 4 -5 1 -5 -6 -1 -10 6 -10 11
-1 22 6 8 14 14 16 14 3 0 0 -6 -6 -13z m-446 -319 c-1 -13 -6 -21 -11 -19 -5
1 -7 8 -5 15 2 6 4 16 4 23 0 7 3 10 7 8 4 -2 6 -14 5 -27z m0 -497 c3 -5 2
-12 -3 -15 -5 -3 -9 1 -9 9 0 17 3 19 12 6z m442 -188 c-4 -3 -2 -12 4 -19 7
-8 6 -14 -2 -20 -7 -4 -9 -3 -5 4 3 6 2 13 -4 17 -10 6 -5 25 7 25 4 0 3 -3 0
-7z m-442 -275 c-1 -13 -6 -21 -11 -19 -5 1 -7 8 -5 15 2 6 4 16 4 23 0 7 3
10 7 8 4 -2 6 -14 5 -27z m446 -1 c-6 -8 -7 -18 -3 -22 4 -5 1 -5 -6 -1 -10 6
-10 11 -1 22 6 8 14 14 16 14 3 0 0 -6 -6 -13z"/>
<path d="M2158 2030 c15 -17 16 -34 2 -25 -6 4 -19 1 -28 -6 -14 -11 -15 -11
-4 1 16 18 16 38 0 22 -15 -15 -31 -16 -22 0 5 7 3 8 -5 4 -7 -5 -10 -14 -8
-20 3 -7 -1 -13 -9 -13 -9 0 -13 7 -9 21 5 19 4 19 -6 -1 -11 -20 -27 -28 -51
-24 -4 0 -10 -8 -13 -19 -4 -11 -14 -20 -23 -20 -14 0 -15 -2 -2 -9 8 -6 18
-7 24 -4 5 3 6 1 2 -6 -4 -6 -11 -9 -16 -6 -10 6 -36 -34 -32 -48 1 -5 -2 -6
-8 -2 -6 4 -4 15 6 31 10 15 12 24 5 24 -6 0 -11 -7 -11 -16 0 -8 -5 -12 -10
-9 -6 4 -9 1 -8 -7 2 -7 -3 -12 -10 -10 -8 1 -11 -2 -7 -8 3 -6 10 -8 15 -5 4
3 10 -1 13 -9 3 -8 -1 -17 -9 -20 -10 -4 -13 -2 -8 7 5 9 3 8 -7 -1 -11 -10
-11 -14 -1 -21 8 -4 15 -20 16 -34 2 -15 0 -24 -5 -22 -4 3 -10 1 -14 -5 -3
-5 0 -10 7 -10 9 0 9 -3 -2 -10 -10 -6 -11 -10 -2 -10 6 0 12 -5 12 -11 0 -5
-4 -7 -10 -4 -17 11 -11 -7 8 -21 16 -12 15 -13 -8 -23 -19 -8 -21 -10 -6 -10
16 -1 17 -3 5 -18 -10 -11 -10 -14 -1 -9 6 4 12 3 12 -3 0 -5 -6 -12 -12 -14
-10 -4 -10 -6 0 -6 6 -1 12 -6 12 -12 0 -5 -4 -7 -10 -4 -17 11 -11 -7 8 -21
16 -12 15 -13 -8 -23 -19 -8 -21 -10 -6 -10 16 -1 17 -3 5 -18 -10 -11 -10
-14 -1 -9 6 4 12 3 12 -3 0 -5 -6 -12 -12 -14 -10 -4 -10 -6 0 -6 6 -1 12 -6
12 -12 0 -5 -4 -8 -8 -5 -4 2 -8 -11 -8 -29 0 -18 3 -32 6 -30 12 7 7 -30 -4
-37 -8 -5 -7 -8 2 -8 6 0 12 -5 12 -11 0 -5 -4 -8 -8 -5 -12 7 -9 -58 3 -66 6
-5 5 -8 -2 -8 -7 0 -13 -5 -13 -11 0 -5 5 -7 10 -4 6 3 10 2 10 -4 0 -5 -6
-12 -12 -14 -10 -4 -10 -6 0 -6 6 -1 12 -5 12 -11 0 -5 -8 -7 -17 -4 -17 5
-17 5 0 -6 16 -10 26 -37 9 -26 -4 2 -8 -9 -8 -25 -1 -16 3 -29 10 -29 6 0 4
-5 -4 -10 -10 -6 -11 -10 -2 -10 6 0 12 -4 12 -10 0 -5 -8 -7 -17 -4 -17 5
-17 5 0 -6 16 -10 26 -37 9 -26 -4 2 -8 -9 -8 -25 -1 -16 3 -29 10 -29 6 0 4
-5 -4 -10 -10 -6 -11 -10 -2 -10 6 0 12 -4 12 -10 0 -5 -8 -7 -17 -4 -17 5
-17 5 0 -6 16 -10 26 -37 9 -26 -4 2 -8 -9 -8 -25 -1 -16 3 -29 10 -29 6 0 4
-5 -4 -10 -10 -6 -11 -10 -2 -10 6 0 12 -4 12 -10 0 -5 -8 -7 -17 -4 -17 5
-17 5 0 -6 16 -10 26 -37 9 -26 -4 2 -8 -9 -8 -25 -1 -16 3 -29 10 -29 6 0 4
-5 -4 -10 -10 -6 -11 -10 -2 -10 6 0 12 -4 12 -10 0 -5 -8 -7 -17 -4 -17 5
-17 5 0 -6 16 -11 26 -36 9 -26 -5 3 -8 -9 -7 -27 0 -21 5 -31 14 -29 7 1 10
-2 6 -8 -3 -6 -11 -7 -17 -4 -6 4 -8 2 -4 -4 3 -5 3 -12 -1 -15 -5 -2 -2 -2 5
-1 6 2 12 0 12 -4 0 -5 -6 -14 -12 -21 -10 -11 -10 -13 0 -7 6 4 12 3 12 -3 0
-5 -6 -12 -12 -14 -10 -4 -10 -6 0 -6 6 -1 12 -6 12 -12 0 -5 -4 -7 -10 -4
-17 11 -11 -7 8 -21 16 -12 15 -13 -8 -23 -19 -8 -21 -10 -6 -10 16 -1 17 -3
5 -18 -10 -11 -10 -14 -1 -9 6 4 12 3 12 -3 0 -5 -6 -12 -12 -14 -10 -4 -10
-6 0 -6 6 -1 12 -6 12 -12 0 -5 -4 -7 -10 -4 -17 11 -11 -7 8 -21 16 -12 15
-13 -8 -23 -20 -8 -21 -10 -6 -10 18 -1 18 -2 3 -19 -14 -15 -15 -19 -2 -19 8
0 11 5 8 10 -4 6 -1 7 6 3 9 -6 8 -12 -4 -26 -15 -17 -15 -21 -1 -48 12 -23
13 -32 3 -35 -9 -4 -9 -6 0 -6 19 -1 26 19 12 37 -12 16 -12 16 5 1 14 -13 16
-21 7 -37 -11 -21 -2 -34 24 -38 6 0 16 -2 24 -2 10 -2 11 -5 2 -16 -10 -12
-8 -17 9 -26 11 -6 18 -15 15 -20 -3 -5 0 -12 6 -16 8 -4 9 -3 5 4 -4 7 -1 12
6 12 7 0 0 9 -17 20 -16 11 -24 20 -17 20 7 0 20 -7 29 -15 8 -8 20 -12 26 -9
8 5 8 2 0 -7 -7 -7 -13 -16 -13 -20 0 -5 51 -8 113 -7 l114 1 -2 28 c-1 16 2
29 7 29 4 0 8 -4 8 -10 0 -5 5 -10 10 -10 7 0 7 6 0 19 -8 16 -6 21 10 26 11
3 19 11 17 17 -1 6 6 12 16 13 9 2 15 -1 11 -6 -3 -5 -10 -6 -16 -3 -7 5 -8 2
-3 -6 6 -10 13 -8 27 10 18 22 19 57 18 859 -1 481 -5 829 -10 821 -5 -8 -6
-18 -4 -22 3 -4 0 -8 -6 -8 -6 0 -8 -5 -4 -12 4 -7 3 -8 -4 -4 -6 4 -8 14 -5
23 4 11 2 14 -5 9 -6 -3 -16 2 -21 13 -16 30 -12 40 4 11 8 -14 14 -20 15 -14
0 6 -9 23 -20 36 -10 14 -16 28 -13 32 3 3 4 6 1 6 -3 0 -12 -8 -19 -17 -8
-10 -9 -14 -2 -10 6 4 14 3 17 -2 3 -5 -2 -11 -12 -13 -19 -5 -22 2 -23 47 0
16 -2 17 -9 5 -8 -12 -10 -13 -10 -1 0 8 -3 11 -7 8 -3 -4 -15 1 -26 10 -11
10 -17 13 -14 7 4 -7 0 -14 -8 -17 -10 -4 -12 -1 -8 11 3 9 3 14 -2 10 -4 -4
-15 -2 -24 4 -13 10 -14 10 -3 -2z m87 -50 c3 -5 1 -10 -4 -10 -6 0 -11 5 -11
10 0 6 2 10 4 10 3 0 8 -4 11 -10z m-210 -16 c-9 -9 -19 -13 -23 -10 -3 4 0
11 8 16 24 15 33 11 15 -6z m-100 -503 c3 -5 2 -12 -3 -15 -5 -3 -9 1 -9 9 0
17 3 19 12 6z m1 -137 c1 -9 0 -13 -4 -10 -3 4 -7 14 -8 22 -1 9 0 13 4 10 3
-4 7 -14 8 -22z m-1 -143 c3 -5 2 -12 -3 -15 -5 -3 -9 1 -9 9 0 17 3 19 12 6z
m0 -120 c3 -5 2 -12 -3 -15 -5 -3 -9 1 -9 9 0 17 3 19 12 6z m0 -120 c3 -5 2
-12 -3 -15 -5 -3 -9 1 -9 9 0 17 3 19 12 6z m0 -120 c3 -5 2 -12 -3 -15 -5 -3
-9 1 -9 9 0 17 3 19 12 6z m0 -120 c3 -5 2 -12 -3 -15 -5 -3 -9 1 -9 9 0 17 3
19 12 6z m5 -381 c0 -5 -5 -10 -11 -10 -5 0 -7 5 -4 10 3 6 8 10 11 10 2 0 4
-4 4 -10z m40 -78 c0 -13 -12 -22 -22 -16 -10 6 -1 24 13 24 5 0 9 -4 9 -8z
m285 -82 c-3 -5 -11 -10 -16 -10 -6 0 -7 5 -4 10 3 6 11 10 16 10 6 0 7 -4 4
-10z"/>
<path d="M364 2022 c3 -5 0 -13 -6 -15 -9 -4 -10 -6 -1 -6 17 -1 25 16 12 25
-7 4 -9 3 -5 -4z"/>
<path d="M387 2010 c-3 -12 -13 -20 -25 -20 -30 0 -53 -11 -46 -22 3 -5 13 -4
22 3 15 11 15 11 0 -6 -13 -14 -20 -16 -31 -7 -11 9 -18 8 -31 -7 -11 -12 -13
-21 -7 -25 13 -8 4 -33 -14 -40 -8 -3 -17 0 -21 6 -4 6 -3 8 3 5 6 -4 17 1 24
10 11 13 11 15 1 9 -7 -4 -19 -3 -25 3 -10 8 -13 4 -13 -17 1 -15 8 -33 16
-40 13 -10 13 -11 -3 -6 -17 6 -18 -1 -16 -94 3 -96 7 -107 34 -90 6 4 12 -2
13 -13 4 -41 6 -49 10 -44 3 3 14 -2 24 -12 10 -9 18 -13 18 -8 0 4 8 1 17 -6
10 -8 14 -9 10 -2 -4 6 -3 15 3 18 6 4 9 1 8 -7 -2 -7 4 -12 12 -10 8 2 11 0
7 -5 -5 -4 -13 -9 -18 -9 -5 -1 -13 -2 -19 -3 -5 0 -10 -6 -10 -12 0 -8 5 -8
15 1 12 10 15 10 15 -1 0 -11 2 -11 8 -1 15 23 52 23 62 -1 7 -17 9 -18 9 -4
1 9 6 17 12 17 5 0 7 -6 3 -12 -5 -8 0 -7 11 2 11 9 16 10 11 3 -4 -7 -2 -13
3 -13 6 0 11 7 11 15 0 8 4 15 10 15 5 0 7 -6 4 -13 -3 -8 2 -14 10 -14 8 0
12 6 9 13 -2 6 1 15 8 20 8 4 10 3 5 -4 -4 -7 -3 -12 2 -12 17 0 22 13 9 29
-9 12 -4 11 18 -3 l30 -19 -17 25 c-17 25 -16 26 4 20 13 -3 19 -1 15 5 -4 6
2 18 12 27 14 13 21 14 27 5 5 -8 3 -10 -6 -4 -9 6 -11 4 -5 -5 6 -9 4 -11 -5
-5 -9 6 -11 4 -5 -5 6 -9 4 -11 -5 -5 -9 6 -11 4 -5 -4 10 -16 53 23 51 47 -1
12 5 16 19 14 16 -2 17 -1 6 7 -18 12 -22 61 -5 54 8 -3 11 3 10 14 -2 10 0
23 5 29 5 7 3 11 -6 11 -8 0 -11 -5 -8 -10 4 -6 1 -7 -7 -2 -10 6 -10 11 3 20
17 13 13 26 -6 21 -7 -2 -9 -1 -4 1 4 3 5 9 2 14 -4 5 0 7 7 6 7 -2 10 -2 5 0
-4 3 -4 9 -1 14 8 14 -21 45 -56 59 -18 7 -27 17 -23 26 5 12 -15 19 -33 12
-3 -2 -12 9 -20 24 -10 19 -19 25 -31 21 -10 -4 -14 -2 -10 4 3 5 0 10 -7 10
-8 0 -12 -5 -10 -12 3 -6 -4 -11 -15 -11 -13 0 -17 5 -13 16 5 13 3 13 -11 1
-12 -9 -17 -10 -17 -2 0 7 -5 9 -10 6 -6 -4 -8 -12 -4 -18 3 -7 -1 -4 -9 6
-14 17 -15 16 -20 -3z m143 -10 c0 -5 -5 -10 -11 -10 -5 0 -7 5 -4 10 3 6 8
10 11 10 2 0 4 -4 4 -10z m-236 -55 c-4 -8 -11 -15 -16 -15 -6 0 -5 6 2 15 7
8 14 15 16 15 2 0 1 -7 -2 -15z m374 -65 c3 -7 -1 -11 -7 -8 -7 2 -11 7 -9 10
2 4 -6 15 -17 24 -19 15 -19 16 4 2 14 -8 27 -21 29 -28z m-418 -201 c0 -6 -4
-7 -10 -4 -5 3 -10 11 -10 16 0 6 5 7 10 4 6 -3 10 -11 10 -16z m35 -19 c-3
-5 -1 -10 6 -10 7 0 10 -3 6 -6 -3 -3 0 -12 6 -19 9 -10 16 -10 27 -1 13 10
13 9 0 -8 -14 -17 -15 -17 -37 9 -20 23 -23 45 -7 45 3 0 2 -4 -1 -10z"/>
<path d="M1914 1812 c3 -5 0 -13 -6 -15 -9 -4 -10 -6 -1 -6 17 -1 25 16 12 25
-7 4 -9 3 -5 -4z"/>
<path d="M1050 1481 c0 -6 4 -13 10 -16 6 -3 7 1 4 9 -7 18 -14 21 -14 7z"/>
<path d="M357 1444 c-3 -3 -2 -17 3 -30 7 -18 6 -22 -5 -17 -8 3 -12 10 -8 16
3 6 1 7 -6 3 -9 -6 -9 -11 -1 -21 8 -10 8 -15 -1 -21 -7 -4 -9 -3 -6 3 4 6 -4
11 -18 11 -23 0 -24 -2 -8 -14 17 -12 16 -13 -4 -9 -15 2 -26 -3 -33 -16 -6
-11 -15 -17 -19 -15 -4 3 -8 -2 -8 -11 0 -12 7 -9 24 11 13 15 23 23 23 18 0
-4 -10 -19 -22 -32 -13 -14 -22 -28 -20 -32 1 -5 -3 -8 -9 -8 -6 0 -9 6 -6 13
3 8 1 20 -4 28 -5 8 -9 -213 -9 -533 0 -353 4 -549 10 -553 6 -4 8 -11 5 -16
-4 -5 -2 -9 3 -9 6 0 13 7 16 16 3 8 2 12 -4 9 -6 -3 -7 1 -4 9 3 9 10 16 16
16 5 0 7 -4 4 -9 -3 -5 1 -14 9 -21 8 -7 15 -21 15 -32 0 -17 2 -18 15 -8 13
11 14 10 10 -3 -4 -8 -1 -18 6 -23 7 -4 10 -3 5 4 -11 18 11 23 25 5 8 -9 9
-14 3 -10 -13 7 -29 -22 -18 -32 4 -3 9 0 11 7 3 6 9 12 14 12 6 0 7 -5 4 -11
-5 -7 25 -10 99 -7 64 2 105 7 104 13 -2 6 -9 9 -17 8 -10 -1 -10 2 -2 10 9 9
17 8 34 -2 22 -14 22 -14 3 8 -20 22 -9 30 13 9 10 -11 10 -8 2 14 -8 22 -8
26 4 21 8 -3 13 -9 10 -13 -3 -5 -1 -12 5 -15 6 -4 10 -3 9 2 -3 18 1 34 9 29
4 -2 9 7 10 20 1 17 -2 23 -10 18 -7 -4 -8 -3 -4 5 6 9 11 9 22 0 17 -14 19 2
2 20 -11 10 -10 11 3 6 10 -4 20 -1 25 6 4 7 3 10 -3 6 -6 -4 -14 0 -17 9 -8
22 -8 24 8 24 15 0 16 41 1 52 -6 5 -5 8 3 8 6 0 12 5 12 11 0 5 -5 7 -12 3
-7 -5 -8 -3 -2 7 15 24 13 42 -4 57 -9 7 -11 10 -3 6 11 -5 13 -3 8 10 -4 9
-3 14 2 11 5 -3 13 -1 16 5 4 6 3 10 -2 9 -19 -3 -33 2 -33 12 0 5 4 8 9 4 5
-3 12 -1 16 5 3 5 1 10 -6 10 -7 0 -4 7 7 15 18 13 18 14 -6 9 -19 -4 -21 -3
-11 4 17 12 22 52 7 52 -5 0 -1 7 10 15 18 13 18 14 -6 9 -19 -4 -21 -3 -11 4
14 10 25 55 11 47 -3 -2 -6 5 -7 15 -1 11 3 23 9 26 6 4 8 2 4 -4 -3 -6 -2
-13 3 -16 5 -4 8 2 6 11 -1 10 -7 17 -13 16 -17 -4 -23 27 -6 34 13 5 13 7 2
14 -10 7 -11 9 0 9 7 0 10 5 7 10 -5 8 -12 7 -23 -2 -10 -7 -6 0 7 15 23 25
23 27 5 28 -15 0 -16 2 -4 7 17 8 25 32 11 32 -5 0 -12 7 -15 16 -5 13 -4 14
7 6 11 -9 13 -8 12 6 0 9 -5 23 -9 31 -5 7 -3 18 4 24 10 9 11 9 6 0 -3 -6 -2
-14 3 -17 5 -4 8 2 6 11 -1 10 -7 17 -13 16 -17 -4 -23 27 -6 34 13 5 13 7 2
14 -10 7 -11 9 0 9 7 0 10 5 7 10 -5 8 -12 7 -23 -2 -10 -7 -6 0 7 15 23 25
23 27 5 28 -15 0 -16 2 -4 7 17 8 25 32 11 32 -5 0 -12 7 -15 16 -5 13 -4 14
7 6 11 -9 13 -8 12 6 0 9 -5 23 -9 30 -4 8 -9 26 -10 42 -2 21 2 27 14 22 8
-3 12 -2 8 3 -4 4 -2 15 4 24 10 13 10 14 -2 4 -18 -16 -38 -17 -22 -1 9 9 8
16 -5 30 -18 20 -43 24 -43 6 0 -6 -3 -8 -6 -5 -4 4 -1 14 7 23 12 16 12 17
-7 12 -18 -4 -21 -1 -18 20 2 17 -1 21 -8 14 -8 -8 -20 -5 -42 11 -17 12 -39
23 -48 23 -35 3 -37 4 -31 22 5 14 3 14 -11 -3 -10 -11 -15 -15 -12 -8 4 7 -1
9 -16 5 -16 -4 -19 -2 -13 9 7 11 6 12 -7 2 -8 -7 -18 -10 -21 -7 -4 4 -4 -4
-2 -17 4 -23 4 -23 -10 -5 -8 10 -12 23 -9 27 6 10 0 12 -9 3z m68 -32 c-3 -3
-11 0 -18 7 -9 10 -8 11 6 5 10 -3 15 -9 12 -12z m239 -121 c-4 -3 -9 0 -11 7
-3 6 -10 9 -15 6 -7 -4 -8 -2 -4 5 6 9 11 9 22 0 8 -6 12 -15 8 -18z m13 -856
c0 -8 -4 -12 -9 -9 -5 3 -6 10 -3 15 9 13 12 11 12 -6z m-2 -74 c3 -5 2 -12
-3 -15 -5 -3 -9 1 -9 9 0 17 3 19 12 6z m-430 -80 c3 -5 2 -12 -3 -15 -5 -3
-9 1 -9 9 0 17 3 19 12 6z m390 -51 c-3 -5 -12 -10 -18 -10 -7 0 -6 4 3 10 19
12 23 12 15 0z"/>
<path d="M506 1434 c-3 -9 -2 -12 5 -9 6 4 16 -1 23 -11 8 -10 15 -13 19 -7 4
6 -4 18 -17 27 -21 13 -25 14 -30 0z"/>
<path d="M567 1405 c-4 -8 -3 -16 1 -19 4 -3 9 4 9 15 2 23 -3 25 -10 4z"/>
<path d="M615 1379 c-4 -6 -4 -13 -1 -16 3 -4 6 -1 6 6 0 7 5 9 12 5 7 -4 8
-3 4 4 -9 15 -13 15 -21 1z"/>
<path d="M670 1215 c0 -2 6 -8 13 -14 10 -8 14 -7 14 2 0 8 -6 14 -14 14 -7 0
-13 -1 -13 -2z"/>
<path d="M1050 521 c0 -6 4 -13 10 -16 6 -3 7 1 4 9 -7 18 -14 21 -14 7z"/>
<path d="M1060 340 c-9 -6 -10 -10 -3 -10 6 0 15 5 18 10 8 12 4 12 -15 0z"/>
<path d="M1485 232 c-10 -7 -18 -32 -10 -32 2 0 9 9 15 20 12 22 11 24 -5 12z"/>
<path d="M2310 199 c0 -5 5 -7 10 -4 6 3 10 8 10 11 0 2 -4 4 -10 4 -5 0 -10
-5 -10 -11z"/>
</g>
</svg>
